<?xml version="1.0" standalone="no"?><!DOCTYPE svg PUBLIC "-//W3C//DTD SVG 1.1//EN" "http://www.w3.org/Graphics/SVG/1.1/DTD/svg11.dtd"><svg t="1652757911390" class="icon" viewBox="0 0 1024 1024" version="1.1" xmlns="http://www.w3.org/2000/svg" p-id="20727" xmlns:xlink="http://www.w3.org/1999/xlink" width="200" height="200"><defs><style type="text/css">@font-face { font-family: feedback-iconfont; src: url("//at.alicdn.com/t/font_1031158_u69w8yhxdu.woff2?t=1630033759944") format("woff2"), url("//at.alicdn.com/t/font_1031158_u69w8yhxdu.woff?t=1630033759944") format("woff"), url("//at.alicdn.com/t/font_1031158_u69w8yhxdu.ttf?t=1630033759944") format("truetype"); }
</style></defs><path d="M919.246197 251.78753L495.602179 4.941117a36.281093 36.281093 0 0 0-36.490541 0L53.48017 240.89622c-11.403294 6.446352-18.338359 18.640895-18.454719 31.76632L34.909091 745.387267c0 13.125424 6.958337 25.319968 18.245271 31.88268l424.202546 246.613693V1024a73.143987 73.143987 0 0 0 36.490542-63.672272l-0.11636-428.973312 369.140926-215.661894A74.144685 74.144685 0 0 0 919.246197 251.78753z m-811.356023 472.422191V336.963157l332.976193 194.251627v386.501859L107.890174 724.186449z m369.234014-256.760297L144.846156 273.104709l332.510752-193.669827 332.534024 193.786187-332.766744 194.228355z" fill="#242932" p-id="20728"></path><path d="M952.222662 696.260014h-147.405032v-147.405032c0-20.363025-16.453325-36.839622-36.839622-36.839622s-36.839622 16.476597-36.839622 36.839622v147.405032h-147.405033c-20.363025 0-36.839622 16.453325-36.839622 36.839622s16.476597 36.839622 36.839622 36.839622h147.405033v147.405033c0 20.363025 16.453325 36.839622 36.839622 36.839622s36.839622-16.476597 36.839622-36.839622v-147.405033h147.405032c20.363025 0 36.839622-16.453325 36.839622-36.839622s-16.476597-36.839622-36.839622-36.839622z" fill="#CC3D3D" p-id="20729"></path></svg>