<?xml version="1.0" standalone="no"?><!DOCTYPE svg PUBLIC "-//W3C//DTD SVG 1.1//EN" "http://www.w3.org/Graphics/SVG/1.1/DTD/svg11.dtd"><svg t="1652756738549" class="icon" viewBox="0 0 1055 1024" version="1.1" xmlns="http://www.w3.org/2000/svg" p-id="7870" xmlns:xlink="http://www.w3.org/1999/xlink" width="206.0546875" height="200"><defs><style type="text/css">@font-face { font-family: feedback-iconfont; src: url("//at.alicdn.com/t/font_1031158_u69w8yhxdu.woff2?t=1630033759944") format("woff2"), url("//at.alicdn.com/t/font_1031158_u69w8yhxdu.woff?t=1630033759944") format("woff"), url("//at.alicdn.com/t/font_1031158_u69w8yhxdu.ttf?t=1630033759944") format("truetype"); }
</style></defs><path d="M822.784 627.712H232.448c-8.704 0-15.872-7.168-15.872-15.872V497.152c0-8.704 7.168-15.872 15.872-15.872h496.128c4.608 0 9.216 2.048 12.288 5.632l94.208 114.688c5.632 6.656 4.608 16.384-2.048 22.016-3.072 2.56-6.656 4.096-10.24 4.096z m-574.464-31.232h541.696l-68.608-83.456H248.32v83.456z" fill="#596770" p-id="7871"></path><path d="M723.456 742.4H305.664c-49.152 0-88.576-39.936-88.576-88.576v-43.008c0-8.704 7.168-15.872 15.872-15.872 8.704 0 15.872 7.168 15.872 15.872v43.008c0 31.744 25.6 57.344 57.344 57.344h417.792c31.744 0 57.344-25.6 57.344-57.344v-37.888c0-8.704 7.168-15.872 15.872-15.872 8.704 0 15.872 7.168 15.872 15.872v37.888c-0.512 49.152-40.448 88.576-89.6 88.576z" fill="#596770" p-id="7872"></path><path d="M284.672 732.16c-33.28 0-59.904-27.136-59.904-59.904 0-33.28 27.136-59.904 59.904-59.904s59.904 27.136 59.904 59.904c0 32.768-26.624 59.904-59.904 59.904z m0-89.088c-15.872 0-28.672 12.8-28.672 28.672s12.8 28.672 28.672 28.672c15.872 0 28.672-12.8 28.672-28.672s-12.8-28.672-28.672-28.672z m459.776 89.088c-33.28 0-59.904-27.136-59.904-59.904 0-33.28 27.136-59.904 59.904-59.904s59.904 27.136 59.904 59.904c0 32.768-26.624 59.904-59.904 59.904z m0-89.088c-15.872 0-28.672 12.8-28.672 28.672s12.8 28.672 28.672 28.672 28.672-12.8 28.672-28.672-12.8-28.672-28.672-28.672z m-142.336 95.744c-8.704 0-15.872-7.168-15.872-15.872v-23.552c0-8.704 7.168-15.872 15.872-15.872 8.704 0 15.872 7.168 15.872 15.872v23.552c0 8.704-7.168 15.872-15.872 15.872z m-55.808 0c-8.704 0-15.872-7.168-15.872-15.872v-23.552c0-8.704 7.168-15.872 15.872-15.872 8.704 0 15.872 7.168 15.872 15.872v23.552c0 8.704-7.168 15.872-15.872 15.872z m-55.808 0c-8.704 0-15.872-7.168-15.872-15.872v-23.552c0-8.704 7.168-15.872 15.872-15.872s15.872 7.168 15.872 15.872v23.552c0 8.704-7.168 15.872-15.872 15.872z m-55.808 0c-8.704 0-15.872-7.168-15.872-15.872v-23.552c0-8.704 7.168-15.872 15.872-15.872s15.872 7.168 15.872 15.872v23.552c0 8.704-7.168 15.872-15.872 15.872z m-55.808 0c-8.704 0-15.872-7.168-15.872-15.872v-23.552c0-8.704 7.168-15.872 15.872-15.872s15.872 7.168 15.872 15.872v23.552c-0.512 8.704-7.168 15.872-15.872 15.872z m279.552 0c-8.704 0-15.872-7.168-15.872-15.872v-23.552c0-8.704 7.168-15.872 15.872-15.872 8.704 0 15.872 7.168 15.872 15.872v23.552c-0.512 8.704-7.168 15.872-15.872 15.872z m109.568-169.984H493.568c-8.704 0-15.872-7.168-15.872-15.872 0-8.704 7.168-15.872 15.872-15.872H768c8.704 0 15.872 7.168 15.872 15.872 0 8.704-7.168 15.872-15.872 15.872z m-190.464-62.464c-8.704 0-15.872-7.168-15.872-15.872V312.832h-18.432c-8.704 0-15.872-7.168-15.872-15.872s7.168-15.872 15.872-15.872h33.792c8.704 0 15.872 7.168 15.872 15.872v193.536c0 8.704-7.168 15.872-15.36 15.872zM478.208 312.832h-15.872c-8.704 0-15.872-7.168-15.872-15.872s7.168-15.872 15.872-15.872h15.872c8.704 0 15.872 7.168 15.872 15.872s-7.168 15.872-15.872 15.872zM274.432 508.928c-8.704 0-15.872-7.168-15.872-15.872V296.96c0-8.704 7.168-15.872 15.872-15.872h125.44c8.704 0 15.872 7.168 15.872 15.872s-7.168 15.872-15.872 15.872H289.792v180.224c0 8.704-6.656 15.872-15.36 15.872z" fill="#596770" p-id="7873"></path><path d="M822.784 393.728h-185.344c-8.704 0-15.872-7.168-15.872-15.872s7.168-15.872 15.872-15.872h169.984v-20.992h-227.328c-8.704 0-15.872-7.168-15.872-15.872s7.168-15.872 15.872-15.872h242.688c8.704 0 15.872 7.168 15.872 15.872v52.224c0 9.216-7.168 16.384-15.872 16.384z" fill="#2164ED" p-id="7874"></path><path d="M352.768 396.288H274.432c-8.704 0-15.872-7.168-15.872-15.872s7.168-15.872 15.872-15.872h62.464V299.52c0-8.704 7.168-15.872 15.872-15.872s15.872 7.168 15.872 15.872v80.896c-0.512 9.216-7.168 15.872-15.872 15.872z" fill="#596770" p-id="7875"></path></svg>