<?xml version="1.0" standalone="no"?><!DOCTYPE svg PUBLIC "-//W3C//DTD SVG 1.1//EN" "http://www.w3.org/Graphics/SVG/1.1/DTD/svg11.dtd"><svg t="1652758239859" class="icon" viewBox="0 0 1075 1024" version="1.1" xmlns="http://www.w3.org/2000/svg" p-id="26485" xmlns:xlink="http://www.w3.org/1999/xlink" width="209.9609375" height="200"><defs><style type="text/css">@font-face { font-family: feedback-iconfont; src: url("//at.alicdn.com/t/font_1031158_u69w8yhxdu.woff2?t=1630033759944") format("woff2"), url("//at.alicdn.com/t/font_1031158_u69w8yhxdu.woff?t=1630033759944") format("woff"), url("//at.alicdn.com/t/font_1031158_u69w8yhxdu.ttf?t=1630033759944") format("truetype"); }
</style></defs><path d="M757.76 622.08l66.56 2.56 112.64 51.2 64 99.84 38.4 122.88 17.92 87.04-30.72 25.6-785.92-5.12-15.36-25.6 43.52-202.24 79.36-99.84 92.16-51.2 61.44-7.68 15.36-2.56 125.44 240.64 87.04-166.4z" p-id="26486"></path><path d="M770.56 622.08l-12.8-17.92v-2.56l17.92-2.56c112.64 0 222.72 87.04 250.88 197.12l40.96 168.96c7.68 28.16-12.8 51.2-40.96 51.2H248.32c-28.16 0-46.08-25.6-40.96-51.2l40.96-168.96c28.16-110.08 138.24-197.12 250.88-197.12h12.8l12.8 2.56-15.36 20.48 12.8-10.24c5.12 5.12 10.24 10.24 15.36 12.8v2.56h-28.16c-99.84 0-199.68 79.36-225.28 176.64L243.2 972.8c-2.56 10.24 2.56 17.92 12.8 17.92h773.12c10.24 0 15.36-7.68 12.8-17.92l-40.96-168.96c-23.04-97.28-125.44-176.64-225.28-176.64h-28.16v-2.56c5.12-5.12 10.24-7.68 15.36-12.8l7.68 10.24z" p-id="26487"></path><path d="M837.12 424.96c-2.56 5.12-5.12 15.36-10.24 28.16-7.68 20.48-17.92 38.4-30.72 58.88-38.4 53.76-89.6 87.04-158.72 87.04-66.56 0-117.76-28.16-156.16-76.8-12.8-15.36-23.04-33.28-30.72-51.2-5.12-10.24-7.68-17.92-7.68-23.04l25.6-7.68s0 2.56 2.56 5.12c2.56 5.12 2.56 10.24 5.12 15.36 7.68 15.36 15.36 30.72 28.16 46.08 30.72 40.96 76.8 64 133.12 64 58.88 0 102.4-28.16 135.68-74.24 12.8-17.92 20.48-35.84 28.16-53.76 2.56-5.12 5.12-12.8 5.12-17.92 0-2.56 0-2.56 2.56-5.12v-2.56l28.16 7.68z" p-id="26488"></path><path d="M806.4 312.32c2.56 7.68 2.56 17.92 5.12 28.16 2.56 20.48 0 40.96-2.56 64 0 5.12 0 10.24-2.56 12.8v5.12c-5.12 28.16 30.72 43.52 48.64 23.04 0 0 2.56-2.56 2.56-5.12 2.56-2.56 2.56-5.12 5.12-7.68 5.12-10.24 10.24-20.48 15.36-33.28 15.36-43.52 23.04-94.72 20.48-161.28-2.56-56.32-23.04-102.4-53.76-140.8-12.8-15.36-25.6-25.6-38.4-35.84-5.12-7.68-10.24-10.24-12.8-12.8-2.56-2.56-5.12-2.56-5.12-2.56-2.56-2.56-7.68-5.12-12.8-7.68-10.24-5.12-20.48-10.24-33.28-15.36-66.56-25.6-135.68-30.72-202.24-2.56-30.72 12.8-58.88 33.28-84.48 58.88-35.84 35.84-56.32 79.36-66.56 128-12.8 61.44-5.12 128 15.36 192 5.12 15.36 10.24 28.16 15.36 38.4 2.56 7.68 5.12 12.8 7.68 15.36 12.8 28.16 56.32 15.36 51.2-15.36 0-5.12 0-15.36 2.56-23.04 2.56-12.8 7.68-28.16 15.36-40.96 12.8-23.04 33.28-38.4 64-51.2 28.16-10.24 56.32-25.6 84.48-38.4 30.72-17.92 61.44-33.28 87.04-51.2 10.24-5.12 17.92-12.8 25.6-17.92 5.12-2.56 7.68-5.12 10.24-7.68L732.16 204.8l2.56 2.56 10.24 10.24c10.24 10.24 20.48 23.04 28.16 33.28 10.24 12.8 17.92 23.04 25.6 35.84 2.56 7.68 5.12 17.92 7.68 25.6zM197.12 926.72c10.24-5.12 28.16-2.56 38.4 0l71.68 25.6c10.24 5.12 17.92-2.56 17.92-12.8l-2.56-79.36c0-10.24 5.12-28.16 12.8-35.84l48.64-61.44c7.68-10.24 2.56-17.92-7.68-23.04l-74.24-23.04c-10.24-2.56-25.6-12.8-30.72-23.04l-43.52-64c-7.68-10.24-17.92-10.24-23.04 0l-43.52 64c-7.68 10.24-20.48 20.48-30.72 23.04l-74.24 23.04c-10.24 2.56-15.36 12.8-7.68 23.04l46.08 61.44c7.68 10.24 12.8 25.6 12.8 35.84l-2.56 79.36c0 10.24 7.68 17.92 17.92 12.8l74.24-25.6z" p-id="26489"></path><path d="M773.12 622.08L657.92 870.4c-2.56 7.68-10.24 10.24-17.92 7.68s-10.24-10.24-7.68-17.92l115.2-248.32c2.56-7.68 10.24-10.24 17.92-7.68 7.68 2.56 10.24 10.24 7.68 17.92z" p-id="26490"></path><path d="M509.44 622.08l122.88 248.32c2.56 7.68 12.8 10.24 17.92 5.12s10.24-12.8 5.12-17.92l-125.44-248.32c-2.56-7.68-12.8-10.24-17.92-5.12s-7.68 12.8-2.56 17.92z" p-id="26491"></path><path d="M855.04 775.68l43.52 107.52c2.56 7.68-2.56 17.92-12.8 17.92h-10.24c-7.68 0-17.92 0-28.16 2.56-28.16 2.56-58.88 5.12-84.48 7.68-61.44 5.12-104.96 12.8-117.76 15.36-10.24 5.12-17.92 5.12-30.72 2.56-7.68 0-10.24-2.56-30.72-7.68-30.72-7.68-48.64-10.24-66.56-5.12-5.12 2.56-10.24 2.56-15.36 7.68-12.8 7.68-25.6 17.92-35.84 28.16-10.24 10.24-15.36 23.04-23.04 33.28-2.56 5.12-2.56 7.68-5.12 10.24v2.56c-2.56 7.68-10.24 12.8-15.36 10.24-7.68-2.56-12.8-10.24-10.24-15.36 0-5.12 2.56-10.24 7.68-20.48 5.12-12.8 15.36-28.16 25.6-40.96 12.8-12.8 25.6-25.6 43.52-35.84 7.68-5.12 15.36-7.68 20.48-10.24 23.04-7.68 46.08-5.12 79.36 5.12 30.72 7.68 38.4 7.68 46.08 5.12 15.36-7.68 58.88-12.8 125.44-17.92 28.16-2.56 56.32-5.12 87.04-7.68 10.24 0 20.48-2.56 28.16-2.56h10.24l-12.8 28.16-43.52-107.52c-2.56-7.68 0-15.36 7.68-17.92s15.36 0 17.92 5.12z" p-id="26492"></path></svg>