<?xml version="1.0" standalone="no"?><!DOCTYPE svg PUBLIC "-//W3C//DTD SVG 1.1//EN" "http://www.w3.org/Graphics/SVG/1.1/DTD/svg11.dtd"><svg t="1652757103518" class="icon" viewBox="0 0 1024 1024" version="1.1" xmlns="http://www.w3.org/2000/svg" p-id="13699" xmlns:xlink="http://www.w3.org/1999/xlink" width="200" height="200"><defs><style type="text/css">@font-face { font-family: feedback-iconfont; src: url("//at.alicdn.com/t/font_1031158_u69w8yhxdu.woff2?t=1630033759944") format("woff2"), url("//at.alicdn.com/t/font_1031158_u69w8yhxdu.woff?t=1630033759944") format("woff"), url("//at.alicdn.com/t/font_1031158_u69w8yhxdu.ttf?t=1630033759944") format("truetype"); }
</style></defs><path d="M359.936 548.352c6.144-23.552 18.432-45.056 36.352-64-29.696-18.944-54.784-45.568-71.68-76.288h56.832c7.68 24.064 16.896 45.568 27.648 64 7.168-6.656 15.36-12.8 23.552-17.92 4.096-2.56 7.68-5.12 11.776-7.68-6.656-11.776-12.288-24.576-17.408-38.912h64V430.08c4.096-0.512 7.68-1.024 11.264-1.024 4.608-0.512 8.704-0.512 13.312-0.512 6.656 0 12.8 0.512 18.944 1.536v-22.016h64c-4.608 13.824-10.752 26.112-16.896 37.376 1.536 0.512 2.56 1.536 3.584 2.048 13.824 7.68 24.064 16.896 31.232 24.576 10.24-18.432 19.968-39.936 27.648-64h56.32c-16.896 30.208-40.448 55.808-69.12 74.752 5.632 4.096 11.264 9.216 16.384 15.36 10.24 12.8 16.896 29.184 20.48 48.64 79.872-51.2 133.12-140.8 133.12-242.688 0-158.72-129.024-287.744-288.256-287.744-159.232 0-288.256 129.024-288.256 287.744-1.024 102.912 53.248 193.536 135.168 244.224z m357.888-305.152c5.632 19.456 8.704 39.936 8.704 60.928 0 20.992-3.072 41.472-8.704 60.928h-64.512c3.072-18.944 5.12-38.912 5.12-60.928 0-21.504-2.048-41.984-5.12-60.928h64.512z m-17.92-43.008h-56.832c-11.776-37.888-28.672-68.608-46.592-93.184 44.544 18.944 80.896 52.224 103.424 93.184z m-166.4-101.376c20.992 20.992 46.592 54.272 64 101.376h-64V98.816z m0 144.384H609.28c3.584 18.432 5.632 38.912 5.632 60.928 0 22.016-2.048 41.984-5.632 60.928h-75.776V243.2z m-43.008 121.856H414.72c-3.584-18.432-6.144-38.912-6.144-60.928 0-22.016 2.048-41.984 5.632-60.928h75.776v121.856z m0-164.864H426.496c16.896-47.104 43.52-80.384 64-101.376v101.376zM427.008 107.008c-17.408 24.576-34.816 55.296-46.592 93.184h-56.32c23.04-40.96 58.88-74.24 102.912-93.184zM296.96 304.128c0-20.992 3.072-41.472 8.704-60.928h64.512c-3.072 18.944-5.12 38.912-5.12 60.928 0 21.504 2.048 41.984 5.12 60.928H305.664c-5.632-19.456-8.704-39.936-8.704-60.928z m673.792 560.128c-48.128-18.432-76.8-36.864-76.8-36.864l-37.376 116.736-5.12 15.872-16.384-47.104c37.888-53.248-3.072-55.808-10.24-55.808h-0.512c-7.168 0-48.128 2.56-10.24 55.808l-16.384 47.104-5.12-15.872-36.864-116.736s-16.384 10.24-44.544 23.552c-7.168-5.632-15.872-10.24-26.112-13.824-57.344-21.504-91.136-44.032-91.136-44.032l-44.032 139.264-6.144 18.944-19.968-55.808c45.568-62.976-3.072-66.048-11.776-66.048h-0.512c-8.704 0-57.344 3.072-11.776 66.048l-19.456 55.808-6.144-18.944-44.544-139.264s-34.304 22.528-91.136 44.032c-10.24 4.096-18.944 8.704-26.112 13.824-28.672-12.8-44.544-23.552-44.544-23.552l-36.864 116.736-5.12 15.872-16.384-47.104c37.888-53.248-3.072-55.808-10.24-55.808h-0.512c-7.168 0-48.128 2.56-10.24 55.808l-16.896 47.104-5.12-15.872-36.864-116.736s-28.672 18.944-76.8 36.864C-0.512 883.2 3.072 926.72 2.048 1008.128h1018.88c-0.512-81.408 3.072-124.928-50.176-143.872z" p-id="13700"></path><path d="M799.232 560.64c-7.68 2.56-15.36 6.656-22.016 11.264-8.192 5.12-15.872 11.776-22.528 18.432-10.752 10.752-20.48 25.088-24.064 42.496-3.584 13.312-2.56 27.136 0 41.472 1.024 4.608 2.048 8.704 3.584 12.8-8.192-1.024-17.408 4.096-8.704 35.328 6.656 23.04 12.288 29.696 16.896 29.696 4.096 27.648 25.6 62.464 60.416 74.752 14.336 5.12 30.208 5.12 44.544 0 34.304-12.288 56.32-47.104 60.416-74.752 4.608-0.512 10.752-7.168 16.896-29.696 9.216-31.744-0.512-36.352-8.704-35.328 1.536-4.608 2.56-8.704 3.584-12.8 13.824-81.92-26.624-84.48-26.624-84.48s-6.656-12.8-24.064-22.528c-11.776-7.168-28.16-12.288-50.176-10.24-6.656 0-13.312 1.536-19.456 3.584zM116.224 753.152c4.096 27.648 25.6 62.464 60.416 74.752 14.336 5.12 30.208 5.12 44.544 0 34.304-12.288 56.32-47.104 60.416-74.752 4.608-0.512 10.752-7.168 16.896-30.208 9.216-31.744-0.512-36.352-8.704-35.328 1.536-4.608 2.56-8.704 3.584-12.8 13.824-81.92-26.624-84.48-26.624-84.48s-6.656-12.8-24.064-22.528c-11.776-7.168-28.16-12.288-50.176-10.24-7.168 0.512-13.824 1.536-19.968 3.584-7.68 2.56-15.36 6.656-21.504 11.264-8.192 5.12-15.872 11.776-22.528 18.432-10.752 10.752-20.48 25.088-24.064 42.496-3.584 13.312-2.56 27.136 0 41.472 1.024 4.608 2.048 8.704 3.584 12.8-7.68-1.024-17.408 4.096-8.704 35.328 6.144 23.04 12.288 29.696 16.896 30.208z m276.992-84.48c7.68 27.648 14.848 35.328 20.48 35.84 5.12 32.768 30.208 74.24 71.68 89.088 16.896 6.144 35.84 6.144 52.736 0 40.96-14.848 67.072-56.32 72.192-89.088 5.632-0.512 12.8-8.192 20.48-35.84 10.752-37.376-0.512-43.52-10.24-41.984 2.048-5.12 3.072-10.24 4.096-15.36 16.384-97.28-31.744-100.864-31.744-100.864s-7.68-15.36-28.672-27.136c-13.824-8.704-33.792-14.848-59.392-12.288-8.704 0.512-16.384 2.048-23.552 4.608-9.216 3.072-18.432 7.68-26.112 13.312-9.728 6.144-18.944 13.824-26.624 22.016-12.8 12.8-24.064 29.696-28.672 50.688-4.096 15.872-3.072 31.744 0 49.664 1.024 5.12 2.56 10.24 4.096 15.36-10.24-1.024-21.504 4.096-10.752 41.984z" p-id="13701"></path></svg>