<?xml version="1.0" standalone="no"?><!DOCTYPE svg PUBLIC "-//W3C//DTD SVG 1.1//EN" "http://www.w3.org/Graphics/SVG/1.1/DTD/svg11.dtd"><svg t="1652758283040" class="icon" viewBox="0 0 1024 1024" version="1.1" xmlns="http://www.w3.org/2000/svg" p-id="27596" xmlns:xlink="http://www.w3.org/1999/xlink" width="200" height="200"><defs><style type="text/css">@font-face { font-family: feedback-iconfont; src: url("//at.alicdn.com/t/font_1031158_u69w8yhxdu.woff2?t=1630033759944") format("woff2"), url("//at.alicdn.com/t/font_1031158_u69w8yhxdu.woff?t=1630033759944") format("woff"), url("//at.alicdn.com/t/font_1031158_u69w8yhxdu.ttf?t=1630033759944") format("truetype"); }
</style></defs><path d="M343.04 496.64v-33.28h-153.6v30.72h30.72v276.48h92.16V496.64zM140.8 435.2h739.84c17.92-7.68 17.92-25.6 0-35.84C865.28 386.56 512 130.56 512 130.56S158.72 386.56 140.8 399.36c-17.92 10.24-17.92 25.6 0 35.84zM512 258.56c30.72 0 53.76 23.04 53.76 53.76 0 30.72-23.04 53.76-53.76 53.76-30.72 0-53.76-23.04-53.76-53.76 0-30.72 23.04-53.76 53.76-53.76zM161.28 801.28h704v30.72H161.28zM130.56 865.28H896v28.16H130.56zM588.8 496.64v-30.72h-153.6v28.16h30.72v276.48h92.16V496.64zM832 496.64v-30.72h-151.04v28.16h28.16v276.48h94.72V496.64z" fill="#cdcdcd" p-id="27597"></path></svg>