<?xml version="1.0" standalone="no"?><!DOCTYPE svg PUBLIC "-//W3C//DTD SVG 1.1//EN" "http://www.w3.org/Graphics/SVG/1.1/DTD/svg11.dtd"><svg t="1652757493369" class="icon" viewBox="0 0 1024 1024" version="1.1" xmlns="http://www.w3.org/2000/svg" p-id="17135" xmlns:xlink="http://www.w3.org/1999/xlink" width="200" height="200"><defs><style type="text/css">@font-face { font-family: feedback-iconfont; src: url("//at.alicdn.com/t/font_1031158_u69w8yhxdu.woff2?t=1630033759944") format("woff2"), url("//at.alicdn.com/t/font_1031158_u69w8yhxdu.woff?t=1630033759944") format("woff"), url("//at.alicdn.com/t/font_1031158_u69w8yhxdu.ttf?t=1630033759944") format("truetype"); }
</style></defs><path d="M320.7 767.8c16.5 0 30-13.5 30-30v-324c0-16.5-13.5-30-30-30h-60c-16.5 0-30 13.5-30 30v324c0 16.5 13.5 30 30 30h60z m220.9 0c16.5 0 30-13.5 30-30v-324c0-16.5-13.5-30-30-30h-60c-16.5 0-30 13.5-30 30v324c0 16.5 13.5 30 30 30h60z m220.9 0c16.5 0 30-13.5 30-30v-324c0-16.5-13.5-30-30-30h-60c-16.5 0-30 13.5-30 30v324c0 16.5 13.5 30 30 30h60z m20.9 63.9H239.9c-26.5 0-48.2 21.7-48.2 48.2 0 26.5 21.7 48.2 48.2 48.2h543.5c26.5 0 48.2-21.7 48.2-48.2 0-26.5-21.7-48.2-48.2-48.2z m60.9-575.3L555.5 107.8a95.598 95.598 0 0 0-87.7 0L178.9 256.4c-30.3 14.8-20.6 64.3 12.6 64.3h640.2c33.2 0 42.9-49.5 12.6-64.3z" p-id="17136"></path></svg>