<?xml version="1.0" standalone="no"?><!DOCTYPE svg PUBLIC "-//W3C//DTD SVG 1.1//EN" "http://www.w3.org/Graphics/SVG/1.1/DTD/svg11.dtd"><svg t="1652756239556" class="icon" viewBox="0 0 1024 1024" version="1.1" xmlns="http://www.w3.org/2000/svg" p-id="3243" xmlns:xlink="http://www.w3.org/1999/xlink" width="200" height="200"><defs><style type="text/css">@font-face { font-family: feedback-iconfont; src: url("//at.alicdn.com/t/font_1031158_u69w8yhxdu.woff2?t=1630033759944") format("woff2"), url("//at.alicdn.com/t/font_1031158_u69w8yhxdu.woff?t=1630033759944") format("woff"), url("//at.alicdn.com/t/font_1031158_u69w8yhxdu.ttf?t=1630033759944") format("truetype"); }
</style></defs><path d="M166.4 334.72h678.4a13.44 13.44 0 0 1 15.36 11.52v23.68a13.44 13.44 0 0 1-15.36 11.52H166.4a13.44 13.44 0 0 1-15.36-11.52v-23.68a13.44 13.44 0 0 1 15.36-11.52z" fill="#8a8a8a" p-id="3244"></path><path d="M166.4 438.4h678.4a14.08 14.08 0 0 1 15.36 12.16v23.04a14.08 14.08 0 0 1-15.36 12.16H166.4a14.08 14.08 0 0 1-15.36-12.16v-25.6a14.08 14.08 0 0 1 15.36-9.6z" fill="#8a8a8a" p-id="3245"></path><path d="M166.4 543.36h678.4a13.44 13.44 0 0 1 15.36 11.52v21.12a13.44 13.44 0 0 1-15.36 11.52H166.4a13.44 13.44 0 0 1-12.8-11.52v-23.68a13.44 13.44 0 0 1 12.8-8.96z" fill="#8a8a8a" p-id="3246"></path><path d="M984.32 148.48H38.4a36.48 36.48 0 0 0-36.48 36.48v583.04a35.2 35.2 0 0 0 35.2 35.84h947.2a35.84 35.84 0 0 0 36.48-35.84V184.96a35.84 35.84 0 0 0-36.48-36.48z m-36.48 583.68H72.96v-512h874.88z" fill="#8a8a8a" p-id="3247"></path><path d="M109.44 1024h72.96l64-182.4H175.36z" fill="#8a8a8a" p-id="3248"></path><path d="M544 0h-64l-39.68 109.44h145.92z" fill="#8a8a8a" p-id="3249"></path><path d="M774.4 840.96l64 182.4h72.96l-64-182.4z" fill="#8a8a8a" p-id="3250"></path><path d="M474.24 840.96h72.96v109.44H474.24z" fill="#8a8a8a" p-id="3251"></path></svg>