<?xml version="1.0" standalone="no"?><!DOCTYPE svg PUBLIC "-//W3C//DTD SVG 1.1//EN" "http://www.w3.org/Graphics/SVG/1.1/DTD/svg11.dtd"><svg t="1652757949169" class="icon" viewBox="0 0 1024 1024" version="1.1" xmlns="http://www.w3.org/2000/svg" p-id="21761" xmlns:xlink="http://www.w3.org/1999/xlink" width="200" height="200"><defs><style type="text/css">@font-face { font-family: feedback-iconfont; src: url("//at.alicdn.com/t/font_1031158_u69w8yhxdu.woff2?t=1630033759944") format("woff2"), url("//at.alicdn.com/t/font_1031158_u69w8yhxdu.woff?t=1630033759944") format("woff"), url("//at.alicdn.com/t/font_1031158_u69w8yhxdu.ttf?t=1630033759944") format("truetype"); }
</style></defs><path d="M832.598 554.274c1.726-13.804 3.02-27.607 3.02-42.274s-1.294-28.47-3.02-42.274l91.018-71.175c8.196-6.47 10.353-18.117 5.176-27.607l-86.273-149.252c-5.176-9.49-16.823-12.941-26.313-9.49l-107.409 43.136c-22.431-17.255-46.587-31.49-72.9-42.274l-16.392-114.31c-1.294-10.353-10.353-18.117-21.137-18.117H425.823c-10.784 0-19.843 7.765-21.137 18.117l-16.392 114.311c-26.313 10.784-50.469 25.45-72.9 42.274l-107.409-43.136c-9.921-3.882-21.137 0-26.313 9.49L95.398 370.944c-5.608 9.49-3.02 21.137 5.176 27.607l91.018 71.175c-1.725 13.804-3.02 28.039-3.02 42.274s1.294 28.47 3.02 42.274l-91.018 71.175c-8.196 6.47-10.353 18.117-5.176 27.607l86.273 149.252c5.176 9.49 16.823 12.941 26.313 9.49l107.409-43.136c22.431 17.255 46.587 31.49 72.9 42.274l16.392 114.311c1.294 10.353 10.353 18.117 21.137 18.117h172.545c10.784 0 19.843-7.765 21.137-18.117l16.392-114.311c26.313-10.784 50.469-25.45 72.9-42.274l107.409 43.136c9.921 3.882 21.137 0 26.313-9.49l86.273-149.252c5.176-9.49 3.02-21.137-5.176-27.607l-91.017-71.175zM512.095 662.977c-83.253 0-150.977-67.724-150.977-150.977s67.724-150.977 150.977-150.977S663.072 428.747 663.072 512s-67.724 150.977-150.977 150.977z" fill="#515151" p-id="21762"></path></svg>