<?xml version="1.0" standalone="no"?><!DOCTYPE svg PUBLIC "-//W3C//DTD SVG 1.1//EN" "http://www.w3.org/Graphics/SVG/1.1/DTD/svg11.dtd"><svg t="1652757356022" class="icon" viewBox="0 0 1172 1024" version="1.1" xmlns="http://www.w3.org/2000/svg" p-id="15800" xmlns:xlink="http://www.w3.org/1999/xlink" width="228.90625" height="200"><defs><style type="text/css">@font-face { font-family: feedback-iconfont; src: url("//at.alicdn.com/t/font_1031158_u69w8yhxdu.woff2?t=1630033759944") format("woff2"), url("//at.alicdn.com/t/font_1031158_u69w8yhxdu.woff?t=1630033759944") format("woff"), url("//at.alicdn.com/t/font_1031158_u69w8yhxdu.ttf?t=1630033759944") format("truetype"); }
</style></defs><path d="M894.171429 287.695238c19.504762-4.87619 43.885714 4.87619 48.761904 29.257143v4.87619l53.638096 204.8c4.87619 9.752381 0 24.380952-4.876191 34.133334-4.87619 9.752381-14.628571 14.628571-29.257143 19.504762h-4.87619l-316.952381 43.885714c-14.628571 0-24.380952-4.87619-34.133334-14.628571-9.752381-9.752381-14.628571-24.380952-9.75238-34.133334v-4.87619l53.638095-219.428572c4.87619-24.380952 29.257143-34.133333 48.761905-34.133333 24.380952 4.87619 39.009524 24.380952 34.133333 48.761905v4.87619l-39.009524 160.914286 209.676191-29.257143-39.009524-160.914286c-4.87619-24.380952 9.752381-43.885714 29.257143-53.638095z" p-id="15801"></path><path d="M562.590476 0L348.038095 34.133333c-34.133333 4.87619-48.761905 48.761905-19.504762 73.142857L664.990476 390.095238c9.752381 9.752381 19.504762 9.752381 34.133334 9.752381l214.55238-34.133333c34.133333-4.87619 48.761905-48.761905 19.504762-73.142857L596.72381 9.752381c-9.752381-9.752381-19.504762-9.752381-34.133334-9.752381z m-4.87619 87.771429l248.685714 209.67619-107.27619 19.504762-243.809524-214.552381 102.4-14.628571z" p-id="15802"></path><path d="M318.780952 68.266667c9.752381-19.504762 29.257143-34.133333 53.638096-24.380953 19.504762 4.87619 29.257143 24.380952 24.380952 48.761905V97.52381L343.161905 253.561905l326.704762 297.447619c14.628571 14.628571 19.504762 39.009524 4.87619 58.514286v4.87619c-14.628571 14.628571-39.009524 19.504762-58.514286 4.87619h-4.87619L265.142857 297.447619c-14.628571-14.628571-19.504762-29.257143-14.628571-43.885714v-4.876191l68.266666-180.419047z m331.580953 599.771428c19.504762-4.87619 43.885714 4.87619 48.761905 29.257143v4.876191l53.638095 204.8c4.87619 9.752381 0 24.380952-4.876191 34.133333-4.87619 9.752381-14.628571 14.628571-29.257143 19.504762h-4.87619l-316.952381 43.885714c-14.628571 0-24.380952-4.87619-34.133333-14.628571-9.752381-9.752381-14.628571-24.380952-9.752381-34.133334v-4.87619l48.761904-219.428572c4.87619-24.380952 29.257143-34.133333 48.761905-34.133333s39.009524 24.380952 34.133334 48.761905v4.87619l-39.009524 160.914286 209.67619-29.257143-39.009524-160.914286c-4.87619-19.504762 9.752381-43.885714 34.133334-53.638095z" p-id="15803"></path><path d="M294.4 380.342857c24.380952-4.87619 43.885714 9.752381 48.761905 34.133333s-9.752381 43.885714-29.257143 48.761905h-4.876191l-107.27619 19.504762 253.561905 209.676191 195.047619-34.133334c19.504762-4.87619 43.885714 9.752381 48.761905 29.257143v4.876191c4.87619 19.504762-9.752381 43.885714-29.257143 48.761904h-4.876191l-214.552381 39.009524c-9.752381 0-24.380952 0-29.257143-4.87619h-4.87619l-336.457143-282.819048c-24.380952-24.380952-14.628571-68.266667 19.504762-73.142857h4.87619L294.4 380.342857z" p-id="15804"></path><path d="M70.095238 448.609524c4.87619-24.380952 29.257143-34.133333 48.761905-29.257143 24.380952 9.752381 34.133333 29.257143 29.257143 53.638095v4.876191L94.47619 633.904762l326.704762 292.571428c14.628571 14.628571 19.504762 39.009524 4.876191 58.514286v4.876191c-14.628571 14.628571-39.009524 19.504762-58.514286 4.87619h-4.87619L16.457143 677.790476c-14.628571-14.628571-19.504762-29.257143-14.628572-43.885714v-4.876191l68.266667-180.419047zM1074.590476 614.4l-195.047619 29.257143c-19.504762 4.87619-34.133333 19.504762-34.133333 34.133333l-29.257143 204.8c0 14.628571 4.87619 24.380952 9.752381 34.133334 9.752381 9.752381 24.380952 14.628571 34.133333 9.75238l273.066667-39.009523c9.752381 0 24.380952-9.752381 29.257143-19.504762 4.87619-9.752381 9.752381-24.380952 4.87619-34.133334l-48.761905-190.171428c0-19.504762-19.504762-29.257143-43.885714-29.257143z m-24.380952 87.771429l29.257143 107.27619-170.666667 24.380952 14.628571-117.028571 126.780953-14.628571z" p-id="15805"></path></svg>