<?xml version="1.0" standalone="no"?><!DOCTYPE svg PUBLIC "-//W3C//DTD SVG 1.1//EN" "http://www.w3.org/Graphics/SVG/1.1/DTD/svg11.dtd"><svg t="1652757996346" class="icon" viewBox="0 0 2752 1024" version="1.1" xmlns="http://www.w3.org/2000/svg" p-id="21965" xmlns:xlink="http://www.w3.org/1999/xlink" width="537.5" height="200"><defs><style type="text/css">@font-face { font-family: feedback-iconfont; src: url("//at.alicdn.com/t/font_1031158_u69w8yhxdu.woff2?t=1630033759944") format("woff2"), url("//at.alicdn.com/t/font_1031158_u69w8yhxdu.woff?t=1630033759944") format("woff"), url("//at.alicdn.com/t/font_1031158_u69w8yhxdu.ttf?t=1630033759944") format("truetype"); }
</style></defs><path d="M0 0h2752v1024H0z" fill="#8a8a8a" opacity=".3" p-id="21966"></path><path d="M1655.36 725.76l-184.96-334.08V249.6h30.4c16 0 28.8-12.8 28.8-28.8S1516.8 192 1500.8 192h-313.6c-16 0-28.8 12.8-28.8 28.8s12.8 28.8 28.8 28.8h30.4v142.4l-182.4 328.32c-6.4 11.84-11.2 24.96-11.2 39.36 0 40 29.12 72.32 65.28 72.32h516.16c32.64-3.84 58.56-34.88 58.56-72.32 0-12.48-3.52-23.68-8.64-33.92z m-390.4-313.6a39.36 39.36 0 0 0 5.44-19.84V249.6h147.2v142.08c0 7.04 1.92 13.76 5.44 19.84l28.48 60.48h-214.4l27.84-59.84z m-13.44 302.72a22.848 22.848 0 0 1-22.08-23.36 22.592 22.592 0 0 1 22.08-22.08c12.48 0 22.72 10.24 22.72 22.72 0 12.544-10.24 22.656-22.72 22.72z m90.24-120.96a36.8 36.8 0 0 1-73.6 0 36.8 36.8 0 0 1 73.6 0c0-0.32 0 0 0 0z m69.76 139.84c-23.04 0-41.6-18.56-41.6-41.6 0-23.04 18.56-41.6 41.6-41.6 23.04 0 41.6 18.56 41.6 41.6 0 23.04-18.56 41.6-41.6 41.6z" fill="#8a8a8a" p-id="21967"></path></svg>