<?xml version="1.0" standalone="no"?><!DOCTYPE svg PUBLIC "-//W3C//DTD SVG 1.1//EN" "http://www.w3.org/Graphics/SVG/1.1/DTD/svg11.dtd"><svg t="1652758105181" class="icon" viewBox="0 0 1024 1024" version="1.1" xmlns="http://www.w3.org/2000/svg" p-id="23306" xmlns:xlink="http://www.w3.org/1999/xlink" width="200" height="200"><defs><style type="text/css">@font-face { font-family: feedback-iconfont; src: url("//at.alicdn.com/t/font_1031158_u69w8yhxdu.woff2?t=1630033759944") format("woff2"), url("//at.alicdn.com/t/font_1031158_u69w8yhxdu.woff?t=1630033759944") format("woff"), url("//at.alicdn.com/t/font_1031158_u69w8yhxdu.ttf?t=1630033759944") format("truetype"); }
</style></defs><path d="M528.071111 339.456a28.444444 28.444444 0 0 1 28.444445 28.444444v2.403556h175.815111c62.72 0 113.578667 52.138667 113.578666 116.451556 0 12.600889-9.955556 22.826667-22.257777 22.826666-12.288 0-22.257778-10.225778-22.257778-22.826666 0-38.016-29.226667-69.034667-65.905778-70.727112l-3.157333-0.071111H291.669333c-38.144 0-69.063111 31.701333-69.063111 70.798223 0 12.600889-9.955556 22.826667-22.257778 22.826666-12.288 0-22.257778-10.225778-22.257777-22.826666 0-63.047111 48.881778-114.403556 109.909333-116.380445l3.669333-0.071111h175.786667l0.028444-2.417778a28.444444 28.444444 0 0 1 28.444445-28.444444h32.142222z" fill="#D5100B" p-id="23307"></path><path d="M222.606222 192.497778c11.576889 0 21.077333 9.045333 22.158222 20.622222l0.099556 2.204444v23.964445l155.832889 0.014222c11.576889 0 21.077333 9.059556 22.158222 20.622222l0.099556 2.204445c0 11.861333-8.817778 21.617778-20.110223 22.712889l-2.147555 0.113777-66.944-0.014222 0.056889 0.554667 0.099555 2.190222v31.217778c0 12.600889-9.955556 22.826667-22.257777 22.826667-11.576889 0-21.077333-9.059556-22.158223-20.622223l-0.099555-2.204444v-31.217778c0-0.924444 0.056889-1.848889 0.156444-2.744889h-66.944c-11.562667 0-21.077333-9.045333-22.158222-20.622222l-0.099556-2.190222V215.324444c0-12.615111 9.955556-22.826667 22.257778-22.826666z m388.792889 0c11.576889 0 21.077333 9.045333 22.158222 20.622222l0.099556 2.204444v23.964445l155.832889 0.014222c11.562667 0 21.077333 9.059556 22.158222 20.622222l0.099556 2.204445c0 11.861333-8.817778 21.617778-20.110223 22.712889l-2.147555 0.113777-66.944-0.014222 0.056889 0.554667 0.099555 2.190222v31.217778c0 12.600889-9.955556 22.826667-22.257778 22.826667-11.576889 0-21.077333-9.059556-22.158222-20.622223l-0.099555-2.204444v-31.217778c0-0.924444 0.056889-1.848889 0.156444-2.744889H611.413333c-11.562667 0-21.077333-9.045333-22.158222-20.622222l-0.099555-2.190222V215.324444c0-12.615111 9.955556-22.826667 22.257777-22.826666zM657.393778 479.544889c35.84 0 65.066667 28.928 66.702222 65.237333l0.085333 3.228445v50.275555c0 36.736-28.216889 66.702222-63.644444 68.394667l-3.143111 0.071111H363.591111c-11.562667 0-21.077333 9.045333-22.158222 20.622222l-0.099556 2.190222v79.246223c0 11.861333 8.817778 21.617778 20.110223 22.712889l2.147555 0.113777h326.499556c11.562667 0 21.077333-9.059556 22.158222-20.622222l0.099555-2.204444v-36.408889c0-12.586667 9.955556-22.812444 22.257778-22.812445 11.576889 0 21.077333 9.059556 22.158222 20.622223l0.099556 2.204444v36.394667c0 36.736-28.216889 66.702222-63.630222 68.394666l-3.143111 0.071111H363.591111c-35.825778 0-65.066667-28.928-66.702222-65.237333l-0.071111-3.228444v-79.246223c0-36.721778 28.202667-66.702222 63.630222-68.380444l3.143111-0.085333h293.802667c11.562667 0 21.077333-9.045333 22.158222-20.622223l0.099556-2.190222v-50.275555c0-11.861333-8.817778-21.617778-20.110223-22.727111l-2.147555-0.099556H363.591111c-11.562667 0-21.077333 9.045333-22.158222 20.622222l-0.099556 2.204445v20.636444c0 12.600889-9.955556 22.826667-22.257777 22.826667-11.576889 0-21.077333-9.059556-22.158223-20.622222l-0.099555-2.204445v-20.636444c0-36.736 28.202667-66.702222 63.630222-68.408889l3.143111-0.056889h293.802667z" fill="#606266" p-id="23308"></path></svg>