<?xml version="1.0" standalone="no"?><!DOCTYPE svg PUBLIC "-//W3C//DTD SVG 1.1//EN" "http://www.w3.org/Graphics/SVG/1.1/DTD/svg11.dtd"><svg t="1652758209844" class="icon" viewBox="0 0 1024 1024" version="1.1" xmlns="http://www.w3.org/2000/svg" p-id="25546" xmlns:xlink="http://www.w3.org/1999/xlink" width="200" height="200"><defs><style type="text/css">@font-face { font-family: feedback-iconfont; src: url("//at.alicdn.com/t/font_1031158_u69w8yhxdu.woff2?t=1630033759944") format("woff2"), url("//at.alicdn.com/t/font_1031158_u69w8yhxdu.woff?t=1630033759944") format("woff"), url("//at.alicdn.com/t/font_1031158_u69w8yhxdu.ttf?t=1630033759944") format("truetype"); }
</style></defs><path d="M544.849 348.071l-9.471-10.391-69.631 90.995-6.314-5.196c-8.672 17.314-27.623 30.3-48.136 30.3-30.772 0-48.13-74.459-132.559-74.459-74.959 0-135.72 27.707-135.72 99.583 0 25.977 16.57 70.14 34.726 103.907l19.228 31.256 32.847-19.993c-4.728-6.933-10.259-15.588-15.785-25.976l-15.777-35.511c-8.677-21.642-14.203-42.427-14.203-56.283 0-13.861 2.366-28.577 16.57-28.577 22.095 0 25.246 51.958 24.462 84.859l-9.494 46.12 124.442 8.182-13.469-56.326 0.308 0.299c-0.789-11.263-2.366-25.981-2.366-38.97 0-23.375 1.577-39.835 9.464-39.835 14.987 0 27.618 57.155 81.27 57.155 36.299 0 64.699-31.176 78.908-59.752l-16.571-12.118 67.271-89.269zM274.082 362.86c24.536 0 44.168-20.784 44.168-46.758 0-25.975-19.632-46.758-44.168-46.758-24.544 0-44.176 20.783-44.176 46.758s19.632 46.758 44.176 46.758z m0 0" fill="#333333" p-id="25547"></path><path d="M342.239 587.875c3.38 3.348 5.069 7.033 5.069 11.068 0 4.224-1.782 7.954-5.342 11.202-3.558 3.253-7.582 4.875-12.074 4.875-4.495 0-8.423-1.683-11.793-5.05-9.368-9.038-23.22-13.563-41.572-13.563-36.702 0-55.054 17.434-55.054 52.297 0 15.069 5.196 27.509 15.591 37.318 10.391 9.812 23.542 14.715 39.458 14.715 17.037 0 30.053-3.841 39.04-11.529 3.37-2.971 7.114-4.461 11.234-4.461 4.494 0 8.467 1.618 11.933 4.852 3.467 3.238 5.201 6.943 5.201 11.139 0 4.372-1.875 8.218-5.63 11.535-15.581 13.283-36.226 19.925-61.933 19.925-25.524 0-46.729-8.011-63.62-24.021-16.89-16.016-25.338-35.834-25.338-59.472 0-25.729 7.928-46.122 23.79-61.174 15.859-15.05 37.58-22.576 65.168-22.576 27.962 0 49.921 7.645 65.872 22.92z m0 0M403.043 714.872c0 5.078-1.704 8.975-5.107 11.688-3.409 2.71-7.381 4.066-11.925 4.066-4.732 0-8.613-1.312-11.637-3.938-3.598-2.8-5.389-6.737-5.389-11.815V582.278c0-4.896 1.792-8.836 5.389-11.811 3.029-2.626 6.904-3.941 11.637-3.941 4.544 0 8.516 1.402 11.925 4.208 3.403 2.799 5.107 6.648 5.107 11.544v132.594z m157.367 15.754h-75.729c-15.765 0-28.336-4.063-37.72-12.194-9.386-8.119-14.076-19.611-14.076-34.466 0-16.253 6.077-28.661 18.245-37.223 10.663-7.69 24.51-11.535 41.537-11.535 5.239 0 10.94 1.138 17.119 3.408 7.104 2.621 12.626 5.941 16.562 9.963 0-14.332-9.334-21.495-27.999-21.495-6.34 0-11.471-1.749-15.39-5.241-3.92-3.496-5.878-7.431-5.878-11.799 0-9.611 7.129-14.417 21.396-14.417 17.456 0 31.809 3.931 43.07 11.795 12.571 8.736 18.863 20.883 18.863 36.441v86.763z m-34.062-31.461v-12.318c0-6.639-3.999-11.795-11.993-15.463-6.51-3.146-13.663-4.724-21.472-4.724-17.29 0-25.933 5.769-25.933 17.306 0 10.315 7.431 15.379 22.305 15.199h37.093z m185.231-12.055c0 16.077-7.042 27.963-21.112 35.65-11.262 6.117-26.089 9.175-44.478 9.175-10.89 0-23.933-2.621-39.134-7.862-7.508-2.449-11.256-7.165-11.256-14.16 0-4.192 1.553-7.988 4.653-11.401 3.106-3.408 7.017-5.108 11.729-5.108 2.064 0 4.14 0.438 6.214 1.309 11.676 3.846 20.994 5.769 27.967 5.769 6.969 0 13.273-0.788 18.921-2.359 8.287-2.269 12.432-5.77 12.432-10.484 0-3.321-7.533-6.202-22.592-8.651-19.964-3.143-33.237-6.117-39.83-8.912-14.874-6.295-22.31-16.252-22.31-29.888 0-14.681 7.036-26.034 21.111-34.074 11.822-6.817 26.085-10.225 42.791-10.225 14.076 0 26.555 2.273 37.437 6.816 6.759 2.791 10.137 7.427 10.137 13.89 0 4.197-1.597 7.996-4.785 11.403-3.195 3.412-7.036 5.113-11.545 5.113-2.63 0-5.161-0.524-7.6-1.571-6.568-2.795-14.453-4.197-23.644-4.197-8.823 0-14.55 0.178-17.175 0.525-8.073 1.402-12.104 4.719-12.104 9.958 0 2.975 7.976 6.033 23.926 9.176 20.836 4.026 33.874 7.077 39.133 9.177 14.072 5.595 21.114 15.903 21.114 30.931z m148.636 0c0 16.077-7.04 27.963-21.111 35.65-11.263 6.117-26.088 9.175-44.479 9.175-10.887 0-23.932-2.621-39.131-7.862-7.51-2.449-11.259-7.165-11.259-14.16 0-4.192 1.555-7.988 4.657-11.401 3.104-3.408 7.015-5.108 11.728-5.108 2.065 0 4.14 0.438 6.213 1.309 11.677 3.846 20.996 5.769 27.968 5.769 6.968 0 13.277-0.788 18.922-2.359 8.287-2.269 12.429-5.77 12.429-10.484 0-3.321-7.531-6.202-22.592-8.651-19.961-3.143-33.234-6.117-39.822-8.912-14.88-6.295-22.315-16.252-22.315-29.888 0-14.681 7.035-26.034 21.112-34.074 11.823-6.817 26.083-10.225 42.789-10.225 14.076 0 26.555 2.273 37.442 6.816 6.755 2.791 10.133 7.427 10.133 13.89 0 4.197-1.596 7.996-4.786 11.403-3.195 3.412-7.035 5.113-11.541 5.113a19.04 19.04 0 0 1-7.6-1.571c-6.573-2.795-14.457-4.197-23.648-4.197-8.823 0-14.55 0.178-17.172 0.525-8.074 1.402-12.104 4.719-12.104 9.958 0 2.975 7.974 6.033 23.926 9.176 20.833 4.026 33.873 7.077 39.132 9.177 14.074 5.595 21.109 15.903 21.109 30.931z m0 0M817.611 407.736c-3.832 0-6.576 1.135-8.229 3.397-3.088 3.939-4.625 8.841-4.625 14.708 0 4.19 0.975 7.546 2.931 10.056 2.181 3.016 5.338 4.526 9.471 4.526 1.43 0 3.121-0.753 5.079-2.262 2.55-1.841 3.831-4.191 3.831-7.042V415.53c0-5.19-2.82-7.794-8.458-7.794z" fill="#333333" p-id="25548"></path><path d="M718.652 207.391c-105.511 0-191.342 75.066-191.342 167.336 0 38.258 15.075 75.438 42.532 105.16l-9.214 87.634c-0.317 3.079 0.917 6.108 3.244 7.98 2.327 1.87 5.408 2.314 8.122 1.17l95.972-40.655a216.097 216.097 0 0 0 50.686 6.052c105.514 0 191.344-75.062 191.344-167.341 0-92.27-85.83-167.336-191.344-167.336z m-19.133 237.707c-3.038 3.144-7.095 4.717-12.163 4.717h-99.313v-20.707c0-20.793 7.069-37.923 21.213-51.381 7.578-7.167 20.713-15.289 39.406-24.377 14.139-6.99 21.214-12.934 21.214-17.825 0-9.608-4.465-15.552-13.376-17.824-2.692-0.872-5.808-1.315-9.339-1.315-7.405 0-15.06 1.418-22.974 4.248-1.848 0.664-3.697 1-5.549 1-4.207 0-7.697-1.66-10.474-4.984-2.774-3.313-4.162-7.079-4.162-11.268 0-7.165 3.374-11.969 10.133-14.417 10.81-4.021 21.701-6.032 32.686-6.032 16.044 0 28.882 4.294 38.509 12.871 10.133 9.279 15.202 22.414 15.202 39.398 0 12.779-6.93 23.727-20.778 32.83a7962.176 7962.176 0 0 1-38.762 20.49c-13.852 8.052-20.776 17.331-20.776 27.84h67.14c5.068 0 9.125 1.66 12.163 4.979 2.531 2.975 3.804 6.645 3.804 11.01-0.001 4.191-1.273 7.778-3.804 10.747z m80.436 3.149c0 2.459-0.687 4.345-2.05 5.66-1.368 1.314-2.971 1.974-4.792 1.974-1.899 0-3.514-0.659-4.845-1.969-1.334-1.314-1.996-3.196-1.996-5.654v-32.516c0-3.639-1.568-6.18-4.707-7.619-2.313-1.015-5.678-1.438-10.085-1.273-10.723 0.13-13.935 0.218-9.637 0.258v41.109c0 2.469-0.666 4.365-1.995 5.681-1.334 1.32-2.946 1.979-4.845 1.979-1.827 0-3.423-0.655-4.791-1.969-1.368-1.315-2.056-3.201-2.056-5.66v-56.216l30.534-0.129c6.183 0 11.272 2.186 15.27 6.551 3.996 4.365 5.994 10.114 5.994 17.231v32.562z m59.829-0.222c0 2.367-0.662 4.223-1.98 5.574-1.324 1.349-2.932 2.024-4.82 2.024-2.266 0-4.042-0.927-5.328-2.782a20.697 20.697 0 0 1-10.43 2.782c-8.238 0-14.737-3.107-19.493-9.333-4.311-5.552-6.468-12.49-6.468-20.821 0-9.335 2.562-17.372 7.685-24.097 4.596-6.144 10.473-9.212 17.63-9.212 4.143 0 7.304 1.352 9.49 4.052V363.23c0-2.36 0.687-4.221 2.06-5.57 1.369-1.352 2.97-2.026 4.801-2.026 1.903 0 3.521 0.674 4.854 2.026 1.335 1.349 2.001 3.21 2.001 5.57v84.795z" fill="#333333" p-id="25549"></path><path d="M1000.886 859.765c0.212-1.311 0.405-2.629 0.562-3.962h0.88V363.897h-0.261v-53.996c0.038-1.093 0.266-2.118 0.266-3.227V115.802c0-1.108-0.228-2.129-0.262-3.222v-7.464h-0.618c-4.275-36.469-29.667-64.598-60.664-64.598H84.648c-31.001 0-56.393 28.129-60.673 64.598h-0.876v270.871h0.264v53.997c-0.039 1.093-0.264 2.119-0.264 3.217v411.926c0 1.103 0.225 2.123 0.264 3.216v7.46h0.613c0.157 1.333 0.35 2.651 0.562 3.962H3.155c0.097 23.611 6.008 89.187 30.534 89.187h960.957c24.515 0 28.449-65.557 28.536-89.187h-22.296zM611.6 915.733c0 6.877-5.372 12.452-12 12.452H450.435c-6.627 0-12-5.575-12-12.452v-17.12c0-6.876 5.373-12.452 12-12.452H599.6c6.628 0 12 5.576 12 12.452v17.12z m329.539-87.113h-0.77c-1.365 11.635-5.195 22.291-10.813 31.145H95.883c-5.619-8.854-9.449-19.51-10.816-31.145h-0.536v-6.528c-0.028-0.956-0.229-1.852-0.229-2.817V458.841c0-0.965 0.2-1.867 0.229-2.815v-47.248h-0.229V163.767h0.764c3.744-31.917 25.961-56.525 53.087-56.525h749.132c27.117 0 49.339 24.608 53.083 56.525l0.531 8v6.525c0.035 0.949 0.229 1.85 0.229 2.81v167.026c0 0.97-0.193 1.861-0.227 2.815v47.248h0.236V828.62z" fill="#333333" p-id="25550"></path></svg>