<?xml version="1.0" standalone="no"?><!DOCTYPE svg PUBLIC "-//W3C//DTD SVG 1.1//EN" "http://www.w3.org/Graphics/SVG/1.1/DTD/svg11.dtd"><svg t="1652757567168" class="icon" viewBox="0 0 1024 1024" version="1.1" xmlns="http://www.w3.org/2000/svg" p-id="18243" xmlns:xlink="http://www.w3.org/1999/xlink" width="200" height="200"><defs><style type="text/css">@font-face { font-family: feedback-iconfont; src: url("//at.alicdn.com/t/font_1031158_u69w8yhxdu.woff2?t=1630033759944") format("woff2"), url("//at.alicdn.com/t/font_1031158_u69w8yhxdu.woff?t=1630033759944") format("woff"), url("//at.alicdn.com/t/font_1031158_u69w8yhxdu.ttf?t=1630033759944") format("truetype"); }
</style></defs><path d="M279.424 716.608l0 288.448c0 4.864 1.856 9.664 5.504 13.376S293.504 1024 298.368 1024l101.76 0c4.864 0 9.664-1.856 13.376-5.568 3.648-3.712 5.504-8.512 5.504-13.376l0-286.656-69.76-57.984L279.424 716.608 279.424 716.608zM44.416 1004.928c0 4.864 1.792 9.728 5.44 13.44C53.632 1022.144 58.496 1024 63.296 1024L165.76 1024c4.864 0 9.664-1.856 13.376-5.568 3.712-3.712 5.504-8.512 5.504-13.376l0-211.968L45.056 905.6 44.416 1004.928zM513.856 797.44l0 207.616c0 4.864 1.856 9.664 5.504 13.376S527.936 1024 532.8 1024l101.696 0c4.8 0 9.664-1.856 13.376-5.568s5.504-8.512 5.504-13.376l0-278.208-111.488 93.888L513.856 797.44 513.856 797.44zM749.12 1005.696c0 4.864 1.792 9.088 5.568 12.736C758.4 1022.144 763.2 1024 768 1024l100.928 0c4.864 0 9.664-1.856 13.376-5.568s5.504-8.512 5.504-13.376L887.808 529.6l-139.584 117.44L749.12 1005.696zM712 281.216l113.536 109.056-283.712 238.72-192.64-160.32-304.96 245.888 0 106.24 304.96-245.888 192.576 160.32 342.72-288.32 95.104 91.392L979.584 281.216 712 281.216 712 281.216z" p-id="18244"></path></svg>