<?xml version="1.0" standalone="no"?><!DOCTYPE svg PUBLIC "-//W3C//DTD SVG 1.1//EN" "http://www.w3.org/Graphics/SVG/1.1/DTD/svg11.dtd"><svg t="1652757417603" class="icon" viewBox="0 0 1185 1024" version="1.1" xmlns="http://www.w3.org/2000/svg" p-id="16890" xmlns:xlink="http://www.w3.org/1999/xlink" width="231.4453125" height="200"><defs><style type="text/css">@font-face { font-family: feedback-iconfont; src: url("//at.alicdn.com/t/font_1031158_u69w8yhxdu.woff2?t=1630033759944") format("woff2"), url("//at.alicdn.com/t/font_1031158_u69w8yhxdu.woff?t=1630033759944") format("woff"), url("//at.alicdn.com/t/font_1031158_u69w8yhxdu.ttf?t=1630033759944") format("truetype"); }
</style></defs><path d="M262.546429 410.412703a145.998372 145.998372 0 0 1-142.86536-149.131384 145.998372 145.998372 0 0 1 142.86536-149.131385 145.998372 145.998372 0 0 1 142.86536 149.131385 145.998372 145.998372 0 0 1-142.86536 149.131384z m0-235.602523a83.338127 83.338127 0 0 0-80.205114 86.471139 83.338127 83.338127 0 0 0 80.205114 86.471139 83.338127 83.338127 0 0 0 80.205115-86.471139 83.338127 83.338127 0 0 0-80.205115-86.471139z" p-id="16891"></path><path d="M375.961474 502.523264H147.251577a30.076918 30.076918 0 0 1-27.570508-16.918266L3.759615 276.319778a31.956725 31.956725 0 0 1 0-30.076918L119.681069 35.077832a30.70352 30.70352 0 0 1 27.570508-16.291664H375.961474a30.076918 30.076918 0 0 1 26.943905 16.291664l118.427865 211.165028a31.956725 31.956725 0 0 1 0 30.076918L405.411789 487.484806A29.450315 29.450315 0 0 1 375.961474 502.523264zM165.423048 439.863019h194.246762l98.376586-178.5817-98.376586-179.834905h-194.246762L67.046463 261.281319zM1081.515839 466.180322a31.330123 31.330123 0 0 1-16.291663-5.01282l-438.62172-268.185851a31.330123 31.330123 0 0 1-11.278844-41.982364L689.262702 17.532963a30.70352 30.70352 0 0 1 16.291664-16.291664 30.70352 30.70352 0 0 1 24.437496 3.133013l438.621719 268.812453a31.330123 31.330123 0 0 1 11.278844 41.982365L1109.086348 449.888658a30.70352 30.70352 0 0 1-19.424677 15.038459z m-399.145764-313.301228l387.240318 236.229126 43.235569-74.565692-387.240318-238.108934z" p-id="16892"></path><path d="M783.879673 753.164247h-8.145832L501.281965 678.598555a32.583328 32.583328 0 0 1-21.304484-18.171472 30.70352 30.70352 0 0 1 0-27.570508l229.336499-406.664994a30.70352 30.70352 0 0 1 19.424677-15.038459 28.197111 28.197111 0 0 1 24.437495 3.759615l236.855729 142.86536a30.70352 30.70352 0 0 1 11.278844 41.982365l-187.980737 335.232314a31.330123 31.330123 0 0 1-29.450315 18.171471z m-226.830089-125.320491l211.165027 55.141016 163.543241-287.610528L751.922947 285.092212zM617.203419 1023.856508a25.690701 25.690701 0 0 1-13.158651-3.133012l-234.975921-110.282033a32.583328 32.583328 0 0 1-14.411857-42.608967l66.419861-134.092925a31.956725 31.956725 0 0 1 36.342942-16.291664l272.572069 74.565692a30.70352 30.70352 0 0 1 20.677881 18.798074 31.956725 31.956725 0 0 1 0 28.19711l-104.016008 169.809266a30.70352 30.70352 0 0 1-29.450316 15.038459z m-192.366954-156.650614l180.461508 85.217934 67.673065-110.908635-206.778811-56.394221z" p-id="16893"></path></svg>